<svg width="796" height="150" viewBox="0 0 796 150" fill="none" xmlns="http://www.w3.org/2000/svg">
<path d="M742.889 57.3162C747.607 57.3162 751.431 53.4926 751.431 48.7749C751.431 44.06 747.607 40.2364 742.889 40.2364C738.172 40.2364 734.348 44.06 734.348 48.7749C734.348 53.4926 738.172 57.3162 742.889 57.3162Z" fill="#FA4706"/>
<path d="M769.513 52.0157C773.538 52.0157 776.804 48.7527 776.804 44.7279C776.804 40.7002 773.538 37.4372 769.513 37.4372C765.488 37.4372 762.225 40.7002 762.225 44.7279C762.225 48.7527 765.488 52.0157 769.513 52.0157Z" fill="#FA4706"/>
<path d="M682.489 52.0157C686.513 52.0157 689.779 48.7527 689.779 44.7279C689.779 40.7002 686.513 37.4372 682.489 37.4372C678.464 37.4372 675.201 40.7002 675.201 44.7279C675.201 48.7527 678.464 52.0157 682.489 52.0157Z" fill="#FA4706"/>
<path d="M739.504 8.24512C741.781 8.24512 743.626 6.39944 743.626 4.12252C743.626 1.84561 741.781 -6.83594e-05 739.504 -6.83594e-05C737.227 -6.83594e-05 735.378 1.84561 735.378 4.12252C735.378 6.39944 737.227 8.24512 739.504 8.24512Z" fill="#FA4706"/>
<path d="M709.112 40.2351C704.395 40.2351 700.571 44.0587 700.571 48.7764C700.571 53.4912 704.395 57.3148 709.112 57.3148C713.83 57.3148 717.654 53.4912 717.654 48.7764C717.654 44.0587 713.83 40.2351 709.112 40.2351Z" fill="#FA4706"/>
<path d="M699.836 27.5607C702.838 27.5607 705.273 25.1256 705.273 22.1243C705.273 19.12 702.838 16.6878 699.836 16.6878C696.835 16.6878 694.4 19.12 694.4 22.1243C694.4 25.1256 696.835 27.5607 699.836 27.5607Z" fill="#FA4706"/>
<path d="M752.699 27.5607C755.7 27.5607 758.135 25.1256 758.135 22.1243C758.135 19.12 755.7 16.6878 752.699 16.6878C749.697 16.6878 747.262 19.12 747.262 22.1243C747.262 25.1256 749.697 27.5607 752.699 27.5607Z" fill="#FA4706"/>
<path d="M712.5 8.24512C714.777 8.24512 716.622 6.39944 716.622 4.12252C716.622 1.84561 714.777 -6.83594e-05 712.5 -6.83594e-05C710.223 -6.83594e-05 708.377 1.84561 708.377 4.12252C708.377 6.39944 710.223 8.24512 712.5 8.24512Z" fill="#FA4706"/>
<path d="M726.001 32.2844C729.597 32.2844 732.515 29.3664 732.515 25.7699C732.515 22.1706 729.597 19.2554 726.001 19.2554C722.404 19.2554 719.486 22.1706 719.486 25.7699C719.486 29.3664 722.404 32.2844 726.001 32.2844Z" fill="#FA4706"/>
<path d="M682.489 85.3676C676.96 85.3676 672.476 89.8524 672.476 95.3808C672.476 100.912 676.96 105.394 682.489 105.394C688.02 105.394 692.502 100.912 692.502 95.3808C692.502 89.8524 688.02 85.3676 682.489 85.3676Z" fill="#FA4706"/>
<path d="M699.836 109.886C695.363 109.886 691.738 113.511 691.738 117.984C691.738 122.457 695.363 126.083 699.836 126.083C704.31 126.083 707.935 122.457 707.935 117.984C707.935 113.511 704.31 109.886 699.836 109.886Z" fill="#FA4706"/>
<path d="M712.5 131.863C710.223 131.863 708.377 133.708 708.377 135.985C708.377 138.262 710.223 140.108 712.5 140.108C714.777 140.108 716.622 138.262 716.622 135.985C716.622 133.708 714.777 131.863 712.5 131.863Z" fill="#FA4706"/>
<path d="M769.513 85.3676C763.985 85.3676 759.5 89.8524 759.5 95.3808C759.5 100.912 763.985 105.394 769.513 105.394C775.044 105.394 779.526 100.912 779.526 95.3808C779.526 89.8524 775.044 85.3676 769.513 85.3676Z" fill="#FA4706"/>
<path d="M752.167 109.886C747.693 109.886 744.068 113.511 744.068 117.984C744.068 122.457 747.693 126.083 752.167 126.083C756.64 126.083 760.265 122.457 760.265 117.984C760.265 113.511 756.64 109.886 752.167 109.886Z" fill="#FA4706"/>
<path d="M739.504 131.863C737.227 131.863 735.378 133.708 735.378 135.985C735.378 138.262 737.227 140.108 739.504 140.108C741.781 140.108 743.626 138.262 743.626 135.985C743.626 133.708 741.781 131.863 739.504 131.863Z" fill="#FA4706"/>
<path d="M787.387 61.4389C782.629 61.4389 778.774 65.297 778.774 70.0549C778.774 74.81 782.629 78.6681 787.387 78.6681C792.145 78.6681 796 74.81 796 70.0549C796 65.297 792.145 61.4389 787.387 61.4389Z" fill="#FA4706"/>
<path d="M664.616 61.4389C659.858 61.4389 656 65.297 656 70.0549C656 74.81 659.858 78.6681 664.616 78.6681C669.374 78.6681 673.229 74.81 673.229 70.0549C673.229 65.297 669.374 61.4389 664.616 61.4389Z" fill="#FA4706"/>
<path d="M735.428 102.802C736.995 100.732 739.513 99.5938 742.098 99.8353C743.064 99.9244 744.076 99.8526 745.111 99.5852C748.167 98.8003 750.585 96.2704 751.234 93.1828C751.66 91.1589 751.366 89.227 750.564 87.5883C749.688 85.803 749.895 83.6813 751.096 82.0915L752.315 80.4787C753.388 79.0614 755.133 78.426 756.904 78.5669C757.527 78.6157 758.168 78.5985 758.821 78.5065C762.547 77.9861 765.568 74.9273 766.051 71.1956C766.813 65.3165 761.59 60.4091 755.63 61.7315C752.436 62.4387 749.883 65.052 749.228 68.2575C748.727 70.7098 749.282 73.0241 750.516 74.8353C751.818 76.7528 751.838 79.2568 750.441 81.1054C749.19 82.7585 747.071 83.6066 745.07 83.0747C744.05 82.8045 742.957 82.7182 741.825 82.8562C738.07 83.3162 734.977 86.3262 734.439 90.0693C734.192 91.7856 734.459 93.4214 735.109 94.8474C736.291 97.452 735.75 100.522 734.025 102.802L732.737 104.504C731.15 106.603 728.669 107.833 726.039 107.825H726.001H725.964C723.509 107.83 721.203 106.646 719.777 104.648L717.598 101.595C716.166 99.5881 715.959 96.9892 716.945 94.7295C717.52 93.4128 717.773 91.9265 717.598 90.3625C717.19 86.6597 714.298 83.5606 710.626 82.9223C709.755 82.77 708.904 82.7527 708.088 82.8533C705.969 83.1092 703.862 82.333 702.62 80.5937L702.384 80.2631C701.249 78.6704 700.947 75.8932 701.893 74.1855C702.827 72.498 703.206 70.4654 702.787 68.3265C702.154 65.0951 699.595 62.4474 696.381 61.7315C690.169 60.3487 684.752 65.7305 686.075 71.9374C686.736 75.0336 689.188 77.5607 692.262 78.3254C693.443 78.6186 694.599 78.6617 695.683 78.4979C697.865 78.1701 700.061 78.932 701.341 80.7259L701.401 80.8122C702.686 82.6176 702.933 85.0497 701.789 86.9472C700.826 88.5456 700.372 90.4804 700.656 92.5388C701.168 96.2762 704.233 99.315 707.976 99.7979C708.827 99.9072 709.655 99.8928 710.448 99.7663C712.961 99.3725 715.462 100.525 716.94 102.595L719.079 105.599C720.459 107.531 720.631 109.989 719.846 112.229C719.449 113.35 719.36 114.612 719.679 115.935C720.243 118.263 722.143 120.152 724.481 120.681C728.738 121.641 732.516 118.433 732.516 114.339C732.516 113.618 732.395 112.928 732.179 112.284C731.383 109.938 731.995 107.342 733.49 105.367L735.428 102.802Z" fill="#FA4706"/>
<path d="M65 0L51.2434 7.91005L13.7566 29.5767L0 37.4868V112.46L13.7566 120.37L51.5873 142.037L65.3439 149.947L79.1005 142.037L116.243 120.37L130 112.46V37.4868L116.243 29.5767L78.7566 7.91005L65 0V0ZM27.5132 96.6402V53.3069L65 31.6402L102.487 53.3069V96.6402L65 118.307L27.5132 96.6402Z" fill="#2A5ADA"/>
<line x1="178.354" y1="60.6464" x2="206.499" y2="88.7922" stroke="black"/>
<line x1="179.501" y1="88.9008" x2="207.646" y2="60.755" stroke="black"/>
<line x1="578.354" y1="58.6464" x2="606.499" y2="86.7922" stroke="black"/>
<line x1="579.501" y1="86.9008" x2="607.646" y2="58.755" stroke="black"/>
<g clip-path="url(#clip0)">
<path d="M368.7 68L381.9 48.1H392.8L376.7 72.4L393.6 96.7H382.3L368.7 76.8V68Z" fill="#231F20"/>
<path d="M464.2 48.1H473.6V87.9H496.6V96.7H464.2V48.1Z" fill="#231F20"/>
<path d="M510.3 48.1V96.7H543V87.9H519.7V56.8H543V48.1H510.3Z" fill="#231F20"/>
<path d="M363.6 48.1H354.2V96.7H363.6V48.1Z" fill="#231F20"/>
<path d="M533.5 68H524.5V76.7H533.5V68Z" fill="#231F20"/>
<path d="M243 31.6V113.2H316.6V104.5H252.8V40.3H316.6V31.6H243Z" fill="#231F20"/>
<path d="M434.7 83.3H417.5L413.7 96.6H403.9L419.3 48H433.1L448.6 96.6H438.5L434.7 83.3ZM420 74.7H432L427 56.4H425.2L420 74.7Z" fill="#231F20"/>
<path d="M316 97.6C330.4 97.6 335.6 89.4 335.6 82.3C335.6 74.5 331.2 69.7 322.4 68.1L313.3 66.4C310.3 66 307 64.9 307 61.3C307 57.1 311.2 55.6 315.2 55.6C320.4 55.6 323.3 57.4 324.2 61.2H334C332.8 52.5 326 47.2 315.3 47.2C302.7 47.1 297 54.4 297 61.7C297 69 301.3 73.5 309.4 74.9L318.7 76.5C322 77.1 325.5 78.3 325.5 82.8C325.5 86.7 322 89.1 316.4 89.1C310 89.1 306.2 86.7 305.4 82H295.6C296.8 91.8 304.1 97.6 316 97.6Z" fill="#231F20"/>
</g>
<defs>
<clipPath id="clip0">
<rect width="300" height="81.5" fill="white" transform="translate(243 32)"/>
</clipPath>
</defs>
</svg>
