<svg width="669" height="150" viewBox="0 0 669 150" fill="none" xmlns="http://www.w3.org/2000/svg">
<path d="M615.889 57.3162C620.607 57.3162 624.431 53.4926 624.431 48.7749C624.431 44.06 620.607 40.2364 615.889 40.2364C611.172 40.2364 607.348 44.06 607.348 48.7749C607.348 53.4926 611.172 57.3162 615.889 57.3162Z" fill="#FA4706"/>
<path d="M642.513 52.0157C646.538 52.0157 649.804 48.7527 649.804 44.7279C649.804 40.7002 646.538 37.4372 642.513 37.4372C638.488 37.4372 635.225 40.7002 635.225 44.7279C635.225 48.7527 638.488 52.0157 642.513 52.0157Z" fill="#FA4706"/>
<path d="M555.489 52.0157C559.513 52.0157 562.779 48.7527 562.779 44.7279C562.779 40.7002 559.513 37.4372 555.489 37.4372C551.464 37.4372 548.201 40.7002 548.201 44.7279C548.201 48.7527 551.464 52.0157 555.489 52.0157Z" fill="#FA4706"/>
<path d="M612.504 8.24512C614.781 8.24512 616.626 6.39944 616.626 4.12252C616.626 1.84561 614.781 -6.83594e-05 612.504 -6.83594e-05C610.227 -6.83594e-05 608.378 1.84561 608.378 4.12252C608.378 6.39944 610.227 8.24512 612.504 8.24512Z" fill="#FA4706"/>
<path d="M582.112 40.2351C577.395 40.2351 573.571 44.0587 573.571 48.7764C573.571 53.4912 577.395 57.3148 582.112 57.3148C586.83 57.3148 590.654 53.4912 590.654 48.7764C590.654 44.0587 586.83 40.2351 582.112 40.2351Z" fill="#FA4706"/>
<path d="M572.836 27.5607C575.838 27.5607 578.273 25.1256 578.273 22.1243C578.273 19.12 575.838 16.6878 572.836 16.6878C569.835 16.6878 567.4 19.12 567.4 22.1243C567.4 25.1256 569.835 27.5607 572.836 27.5607Z" fill="#FA4706"/>
<path d="M625.699 27.5607C628.7 27.5607 631.135 25.1256 631.135 22.1243C631.135 19.12 628.7 16.6878 625.699 16.6878C622.697 16.6878 620.262 19.12 620.262 22.1243C620.262 25.1256 622.697 27.5607 625.699 27.5607Z" fill="#FA4706"/>
<path d="M585.5 8.24512C587.777 8.24512 589.622 6.39944 589.622 4.12252C589.622 1.84561 587.777 -6.83594e-05 585.5 -6.83594e-05C583.223 -6.83594e-05 581.377 1.84561 581.377 4.12252C581.377 6.39944 583.223 8.24512 585.5 8.24512Z" fill="#FA4706"/>
<path d="M599.001 32.2844C602.597 32.2844 605.515 29.3664 605.515 25.7699C605.515 22.1706 602.597 19.2554 599.001 19.2554C595.404 19.2554 592.486 22.1706 592.486 25.7699C592.486 29.3664 595.404 32.2844 599.001 32.2844Z" fill="#FA4706"/>
<path d="M555.489 85.3676C549.96 85.3676 545.476 89.8524 545.476 95.3808C545.476 100.912 549.96 105.394 555.489 105.394C561.02 105.394 565.502 100.912 565.502 95.3808C565.502 89.8524 561.02 85.3676 555.489 85.3676Z" fill="#FA4706"/>
<path d="M572.836 109.886C568.363 109.886 564.738 113.511 564.738 117.984C564.738 122.457 568.363 126.083 572.836 126.083C577.31 126.083 580.935 122.457 580.935 117.984C580.935 113.511 577.31 109.886 572.836 109.886Z" fill="#FA4706"/>
<path d="M585.5 131.863C583.223 131.863 581.377 133.708 581.377 135.985C581.377 138.262 583.223 140.108 585.5 140.108C587.777 140.108 589.622 138.262 589.622 135.985C589.622 133.708 587.777 131.863 585.5 131.863Z" fill="#FA4706"/>
<path d="M642.513 85.3676C636.985 85.3676 632.5 89.8524 632.5 95.3808C632.5 100.912 636.985 105.394 642.513 105.394C648.044 105.394 652.526 100.912 652.526 95.3808C652.526 89.8524 648.044 85.3676 642.513 85.3676Z" fill="#FA4706"/>
<path d="M625.167 109.886C620.693 109.886 617.068 113.511 617.068 117.984C617.068 122.457 620.693 126.083 625.167 126.083C629.64 126.083 633.265 122.457 633.265 117.984C633.265 113.511 629.64 109.886 625.167 109.886Z" fill="#FA4706"/>
<path d="M612.504 131.863C610.227 131.863 608.378 133.708 608.378 135.985C608.378 138.262 610.227 140.108 612.504 140.108C614.781 140.108 616.626 138.262 616.626 135.985C616.626 133.708 614.781 131.863 612.504 131.863Z" fill="#FA4706"/>
<path d="M660.387 61.4389C655.629 61.4389 651.774 65.297 651.774 70.0549C651.774 74.81 655.629 78.6681 660.387 78.6681C665.145 78.6681 669 74.81 669 70.0549C669 65.297 665.145 61.4389 660.387 61.4389Z" fill="#FA4706"/>
<path d="M537.616 61.4389C532.858 61.4389 529 65.297 529 70.0549C529 74.81 532.858 78.6681 537.616 78.6681C542.374 78.6681 546.229 74.81 546.229 70.0549C546.229 65.297 542.374 61.4389 537.616 61.4389Z" fill="#FA4706"/>
<path d="M608.428 102.802C609.995 100.732 612.513 99.5938 615.098 99.8353C616.064 99.9244 617.076 99.8526 618.111 99.5852C621.167 98.8003 623.585 96.2704 624.234 93.1828C624.66 91.1589 624.366 89.227 623.564 87.5883C622.688 85.803 622.895 83.6813 624.096 82.0915L625.315 80.4787C626.388 79.0614 628.133 78.426 629.904 78.5669C630.527 78.6157 631.168 78.5985 631.821 78.5065C635.547 77.9861 638.568 74.9273 639.051 71.1956C639.813 65.3165 634.59 60.4091 628.63 61.7315C625.436 62.4387 622.883 65.052 622.228 68.2575C621.727 70.7098 622.282 73.0241 623.516 74.8353C624.818 76.7528 624.838 79.2568 623.441 81.1054C622.19 82.7585 620.071 83.6066 618.07 83.0747C617.05 82.8045 615.957 82.7182 614.825 82.8562C611.07 83.3162 607.977 86.3262 607.439 90.0693C607.192 91.7856 607.459 93.4214 608.109 94.8474C609.291 97.452 608.75 100.522 607.025 102.802L605.737 104.504C604.15 106.603 601.669 107.833 599.039 107.825H599.001H598.964C596.509 107.83 594.203 106.646 592.777 104.648L590.598 101.595C589.166 99.5881 588.959 96.9892 589.945 94.7295C590.52 93.4128 590.773 91.9265 590.598 90.3625C590.19 86.6597 587.298 83.5606 583.626 82.9223C582.755 82.77 581.904 82.7527 581.088 82.8533C578.969 83.1092 576.862 82.333 575.62 80.5937L575.384 80.2631C574.249 78.6704 573.947 75.8932 574.892 74.1855C575.827 72.498 576.206 70.4654 575.787 68.3265C575.154 65.0951 572.595 62.4474 569.381 61.7315C563.169 60.3487 557.752 65.7305 559.075 71.9374C559.736 75.0336 562.188 77.5607 565.262 78.3254C566.443 78.6186 567.599 78.6617 568.683 78.4979C570.865 78.1701 573.061 78.932 574.341 80.7259L574.401 80.8122C575.686 82.6176 575.933 85.0497 574.789 86.9472C573.826 88.5456 573.372 90.4804 573.656 92.5388C574.168 96.2762 577.233 99.315 580.976 99.7979C581.827 99.9072 582.655 99.8928 583.448 99.7663C585.961 99.3725 588.462 100.525 589.94 102.595L592.079 105.599C593.459 107.531 593.631 109.989 592.846 112.229C592.449 113.35 592.36 114.612 592.679 115.935C593.243 118.263 595.143 120.152 597.481 120.681C601.738 121.641 605.516 118.433 605.516 114.339C605.516 113.618 605.395 112.928 605.179 112.284C604.383 109.938 604.995 107.342 606.49 105.367L608.428 102.802Z" fill="#FA4706"/>
<path d="M65 0L51.2434 7.91005L13.7566 29.5767L0 37.4868V112.46L13.7566 120.37L51.5873 142.037L65.3439 149.947L79.1005 142.037L116.243 120.37L130 112.46V37.4868L116.243 29.5767L78.7566 7.91005L65 0V0ZM27.5132 96.6402V53.3069L65 31.6402L102.487 53.3069V96.6402L65 118.307L27.5132 96.6402Z" fill="#2A5ADA"/>
<path d="M253 34.1923L290.5 12.5416V55.8429L253 34.1923Z" fill="#0F2631"/>
<path d="M328 34.1923L290.5 55.8429V12.5416L328 34.1923Z" fill="#2A3D58"/>
<path d="M365.308 55.7308L327.808 77.3815V34.0802L365.308 55.7308Z" fill="#2A3D58"/>
<path d="M290.308 55.7307L327.808 34.0801V77.3813L290.308 55.7307Z" fill="#0F2631"/>
<path d="M403 34L365.5 55.6506V12.3494L403 34Z" fill="#2A3D58"/>
<path d="M328 34.1923L365.5 12.5416V55.8429L328 34.1923Z" fill="#0F2631"/>
<path d="M253 94.9614L290.5 73.3108V116.612L253 94.9614Z" fill="#0F2631"/>
<path d="M328 94.9614L290.5 116.612V73.3108L328 94.9614Z" fill="#2A3D58"/>
<path d="M365.308 116.5L327.808 138.151V94.8494L365.308 116.5Z" fill="#2A3D58"/>
<path d="M290.308 116.5L327.808 94.8494V138.151L290.308 116.5Z" fill="#0F2631"/>
<path d="M403 94.7692L365.5 116.42V73.1185L403 94.7692Z" fill="#2A3D58"/>
<path d="M328 94.9614L365.5 73.3108V116.612L328 94.9614Z" fill="#0F2631"/>
<line x1="178.354" y1="60.6464" x2="206.499" y2="88.7922" stroke="black"/>
<line x1="179.501" y1="88.9008" x2="207.646" y2="60.755" stroke="black"/>
<line x1="451.354" y1="58.6464" x2="479.499" y2="86.7922" stroke="black"/>
<line x1="452.501" y1="86.9008" x2="480.646" y2="58.755" stroke="black"/>
</svg>
